<svg xmlns="http://www.w3.org/2000/svg" fill="none" viewBox="-0.5 -0.5 18 18"
  id="Ads-1--Streamline-Ultimate" height="18" width="18">
  <desc>Ads 1 Streamline Icon: https://streamlinehq.com</desc>
  <path stroke="#000000" stroke-linecap="round" stroke-linejoin="round" stroke-miterlimit="10"
    d="M7.685416666666667 12.162083333333335c-0.779195 0.425 -1.06252125 1.3458333333333334 -0.63752125 2.0541666666666667 0.42502124999999996 0.7791666666666668 1.3458545833333335 1.0625 2.054187916666667 0.6375000000000001l0.2125 -0.1416666666666667c4.0375000000000005 -2.1958333333333333 4.675 -1.9125000000000003 7.154166666666667 -2.0541666666666667l-2.904166666666667 -5.4541666666666675c-1.5583333333333336 2.1958333333333333 -1.6291666666666667 2.6208333333333336 -5.879166666666667 4.958333333333334Z"
    stroke-width="1"></path>
  <path stroke="#000000" stroke-linecap="round" stroke-linejoin="round" stroke-miterlimit="10"
    d="M8.921104166666668 11.474787500000001 10.872916666666667 15.632916666666668c0.425 0.7791666666666668 1.3458333333333334 1.0625 2.0541666666666667 0.6375000000000001"
    stroke-width="1"></path>
  <path stroke="#000000" stroke-linecap="round" stroke-linejoin="round" stroke-miterlimit="10"
    d="M6.693778333333333 3.2229095833333337c0.7432966666666667 0 1.3458050000000001 -0.6025720833333333 1.3458050000000001 -1.3458545833333335C8.039583333333333 1.1337725 7.437075 0.53125 6.693778333333333 0.53125c-0.7432825 0 -1.3458262500000002 0.6025225000000001 -1.3458262500000002 1.3458050000000001s0.60254375 1.3458545833333335 1.3458262500000002 1.3458545833333335Z"
    stroke-width="1"></path>
  <path stroke="#000000" stroke-linecap="round" stroke-linejoin="round" stroke-miterlimit="10"
    d="M1.8770975 5.98538125c0.7432895833333334 0 1.3458333333333334 -0.602565 1.3458333333333334 -1.3458475s-0.60254375 -1.3458545833333335 -1.3458333333333334 -1.3458545833333335C1.1338150000000002 3.2936791666666667 0.53125 3.89625125 0.53125 4.63953375c0 0.7432825 0.602565 1.3458475 1.3458475 1.3458475Z"
    stroke-width="1"></path>
  <path stroke="#000000" stroke-linecap="round" stroke-linejoin="round" stroke-miterlimit="10"
    d="M11.510416666666668 5.98538125c0.7432541666666667 0 1.3458333333333334 -0.602565 1.3458333333333334 -1.3458475s-0.6025791666666667 -1.3458545833333335 -1.3458333333333334 -1.3458545833333335c-0.7433250000000001 0 -1.3458333333333334 0.6025720833333333 -1.3458333333333334 1.3458545833333335 0 0.7432825 0.6025083333333334 1.3458475 1.3458333333333334 1.3458475Z"
    stroke-width="1"></path>
  <path stroke="#000000" stroke-linecap="round" stroke-linejoin="round" stroke-miterlimit="10"
    d="M5.489555 10.8020125H4.00207625c-0.5666666666666668 0 -0.9208475 -0.6375000000000001 -0.5666808333333333 -1.1333333333333335l2.7624929166666665 -3.683297916666667c0.2833333333333334 -0.3541666666666667 0.8500070833333334 -0.3541666666666667 1.1333616666666666 0l1.3458333333333334 1.77086875"
    stroke-width="1"></path>
</svg>
