<svg xmlns="http://www.w3.org/2000/svg" viewBox="-0.5 -0.5 18 18"
  id="Money-Payments-Accounting-Bill-Money-1--Streamline-Pixel" height="18" width="18">
  <desc>Money Payments Accounting Bill Money 1 Streamline Icon: https://streamlinehq.com</desc>
  <title>money-payments-accounting-bill-money-1</title>
  <g>
    <path d="M16.1871875 2.43046875H17v8.90375h-0.8128125Z" fill="#000000" stroke-width="1"></path>
    <path d="M0 14.56953125h17v0.8128125H0Z" fill="#000000" stroke-width="1"></path>
    <path d="M0 12.95453125h17v0.8075H0Z" fill="#000000" stroke-width="1"></path>
    <path d="M0.8075 11.33421875h15.3796875v0.8075H0.8075Z" fill="#000000" stroke-width="1"></path>
    <path d="M14.5721875 9.71390625h0.8075v0.8075h-0.8075Z" fill="#000000" stroke-width="1"></path>
    <path d="M14.5721875 3.23796875h0.8075v0.8075h-0.8075Z" fill="#000000" stroke-width="1"></path>
    <path
      d="m13.759374999999999 5.665781249999999 0.8128125 0 0 2.4278125 -0.8128125 0 0 0.8128125 1.6203124999999998 0 0 -4.048125 -1.6203124999999998 0 0 0.8075z"
      fill="#000000" stroke-width="1"></path>
    <path d="m12.951875 9.71390625 -2.4278125 0 0 0.8075 3.2353125 0 0 -1.615 -0.8075 0 0 0.8075z"
      fill="#000000" stroke-width="1"></path>
    <path d="M12.951875 6.47328125h0.8075v0.8128125h-0.8075Z" fill="#000000" stroke-width="1"></path>
    <path
      d="m10.5240625 3.23796875 0 0.8075 2.4278125 0 0 0.8128125 0.8075 0 0 -1.6203124999999998 -3.2353125 0z"
      fill="#000000" stroke-width="1"></path>
    <path d="M12.139062500000001 7.28609375h0.8128125v0.8075h-0.8128125Z" fill="#000000"
      stroke-width="1"></path>
    <path d="M12.139062500000001 5.665781249999999h0.8128125v0.8075h-0.8128125Z" fill="#000000"
      stroke-width="1"></path>
    <path d="M11.331562499999999 6.47328125h0.8075v0.8128125h-0.8075Z" fill="#000000"
      stroke-width="1"></path>
    <path d="M9.71125 7.28609375h0.8128125v1.6203124999999998h-0.8128125Z" fill="#000000"
      stroke-width="1"></path>
    <path d="M9.71125 4.85828125h0.8128125v0.8075h-0.8128125Z" fill="#000000" stroke-width="1"></path>
    <path
      d="m8.90375 7.28609375 0.8075 0 0 -0.8128125 -0.8075 0 0 -1.615 0.8075 0 0 -0.8128125 -0.8075 0 0 -0.8075 -0.8075 0 0 0.8075 -0.8128125 0 0 0.8128125 0.8128125 0 0 1.615 -0.8128125 0 0 0.8128125 0.8128125 0 0 1.6203124999999998 -0.8128125 0 0 0.8075 0.8128125 0 0 0.8075 0.8075 0 0 -0.8075 0.8075 0 0 -0.8075 -0.8075 0 0 -1.6203124999999998z"
      fill="#000000" stroke-width="1"></path>
    <path d="M6.4759375 8.09359375h0.8075v0.8128125h-0.8075Z" fill="#000000" stroke-width="1"></path>
    <path d="M6.4759375 4.85828125h0.8075v1.615h-0.8075Z" fill="#000000" stroke-width="1"></path>
    <path
      d="m4.048125 9.71390625 0 -0.8075 -0.8128125 0 0 1.615 3.2406249999999996 0 0 -0.8075 -2.4278125 0z"
      fill="#000000" stroke-width="1"></path>
    <path d="M4.855625 6.47328125h0.8075v0.8128125H4.855625Z" fill="#000000" stroke-width="1"></path>
    <path d="M4.048125 7.28609375h0.8075v0.8075H4.048125Z" fill="#000000" stroke-width="1"></path>
    <path d="M4.048125 5.665781249999999h0.8075v0.8075H4.048125Z" fill="#000000" stroke-width="1"></path>
    <path d="M3.2353125 6.47328125h0.8128125v0.8128125H3.2353125Z" fill="#000000" stroke-width="1"></path>
    <path
      d="m4.048125 4.04546875 2.4278125 0 0 -0.8075 -3.2406249999999996 0 0 1.6203124999999998 0.8128125 0 0 -0.8128125z"
      fill="#000000" stroke-width="1"></path>
    <path
      d="m2.4278125 8.09359375 0 -2.4278125 0.8075 0 0 -0.8075 -1.6203124999999998 0 0 4.048125 1.6203124999999998 0 0 -0.8128125 -0.8075 0z"
      fill="#000000" stroke-width="1"></path>
    <path d="M1.615 9.71390625h0.8128125v0.8075H1.615Z" fill="#000000" stroke-width="1"></path>
    <path d="M1.615 3.23796875h0.8128125v0.8075H1.615Z" fill="#000000" stroke-width="1"></path>
    <path d="M0.8075 1.61765625h15.3796875v0.8128125H0.8075Z" fill="#000000" stroke-width="1"></path>
    <path d="M0 2.43046875h0.8075v8.90375H0Z" fill="#000000" stroke-width="1"></path>
  </g>
</svg>
