<svg xmlns="http://www.w3.org/2000/svg" fill="none" viewBox="-0.5 -0.5 18 18" id="Meeting-Point--Streamline-Ultimate" height="18" width="18"><desc>Meeting Point Streamline Icon: https://streamlinehq.com</desc><path stroke="#000000" stroke-linecap="round" stroke-linejoin="round" d="M6.207599583333333 8.499929166666668c0 1.2690500000000002 1.0327004166666667 2.293016666666667 2.2930379166666666 2.293016666666667 1.2602666666666666 0 2.2929458333333335 -1.03275 2.2929458333333335 -2.293016666666667 0 -1.2602666666666666 -1.0326791666666666 -2.293016666666667 -2.2929458333333335 -2.293016666666667 -1.2603375 0 -2.2930379166666666 1.03275 -2.2930379166666666 2.293016666666667Z" stroke-width="1"></path><path stroke="#000000" stroke-linecap="round" stroke-linejoin="round" d="m2.397545416666667 4.934469583333334 2.54419875 0.0007295833333333335V2.390270833333333" stroke-width="1"></path><path stroke="#000000" stroke-linecap="round" stroke-linejoin="round" d="m2.397545416666667 12.0655375 2.54419875 -0.0007083333333333334v2.5449" stroke-width="1"></path><path stroke="#000000" stroke-linecap="round" stroke-linejoin="round" d="m14.602433333333336 4.934469583333334 -2.544191666666667 0.0007295833333333335V2.390270833333333" stroke-width="1"></path><path stroke="#000000" stroke-linecap="round" stroke-linejoin="round" d="m14.602433333333336 12.0655375 -2.544191666666667 -0.0007083333333333334v2.5449" stroke-width="1"></path><path stroke="#000000" stroke-linecap="round" stroke-linejoin="round" d="M4.9431183333333335 4.934405833333334 0.7069499583333334 0.6969199583333333" stroke-width="1"></path><path stroke="#000000" stroke-linecap="round" stroke-linejoin="round" d="M4.9431183333333335 12.065608333333333 0.7069499583333334 16.303070833333337" stroke-width="1"></path><path stroke="#000000" stroke-linecap="round" stroke-linejoin="round" d="M12.056895833333334 4.934405833333334 16.293083333333332 0.6969199583333333" stroke-width="1"></path><path stroke="#000000" stroke-linecap="round" stroke-linejoin="round" d="m12.056895833333334 12.065608333333333 4.236187500000001 4.2374625" stroke-width="1"></path></svg>
